<svg width="21" height="21" viewBox="0 0 21 21" fill="none" xmlns="http://www.w3.org/2000/svg">
<path fill-rule="evenodd" clip-rule="evenodd" d="M18.9954 9.89415L16.3704 7.25777C16.0291 6.91565 15.4744 6.91302 15.1331 7.25515C14.7901 7.5964 14.7884 8.1494 15.1296 8.4924L16.2575 9.62465H11.375V4.73252L12.5046 5.8674C12.6753 6.0389 12.9001 6.12465 13.125 6.12465C13.3481 6.12465 13.5721 6.03977 13.7428 5.87002C14.0849 5.52877 14.0866 4.9749 13.7454 4.63277L11.1318 2.00777C10.9664 1.8424 10.7756 1.75752 10.5114 1.74965C10.2795 1.74965 10.0573 1.84152 9.89363 2.00515L7.25726 4.63015C6.91513 4.9714 6.91338 5.52527 7.25463 5.8674C7.59501 6.20952 8.14888 6.21127 8.49276 5.87002L9.62501 4.74215V9.62465H4.73201L5.86688 8.49502C6.20988 8.15377 6.21163 7.5999 5.87038 7.25777C5.52913 6.91565 4.97438 6.91302 4.63313 7.25515L2.00813 9.86877C1.84276 10.0324 1.75088 10.2546 1.75001 10.4865C1.74913 10.7184 1.84188 10.9415 2.00463 11.106L4.62963 13.7424C4.80026 13.9139 5.02513 13.9996 5.25001 13.9996C5.47313 13.9996 5.69713 13.9148 5.86688 13.745C6.20988 13.4038 6.21163 12.8499 5.87038 12.5078L4.74251 11.3746H9.62501V16.2676L8.49538 15.1328C8.15413 14.7898 7.60026 14.788 7.25726 15.1301C6.91513 15.4714 6.91338 16.0253 7.25463 16.3674L9.86826 18.9924C10.0328 19.1569 10.255 19.2496 10.4869 19.2496H10.4886C10.7205 19.2496 10.9428 19.1578 11.1064 18.995L13.7428 16.37C14.0849 16.0288 14.0866 15.4749 13.7454 15.1328C13.4041 14.7898 12.8503 14.788 12.5073 15.1301L11.375 16.2571V11.3746H16.268L15.1331 12.5051C14.7901 12.8464 14.7884 13.3994 15.1296 13.7424C15.3003 13.9139 15.5251 13.9996 15.75 13.9996C15.9731 13.9996 16.1971 13.9148 16.3669 13.745L18.9919 11.1314C19.1573 10.9678 19.2491 10.7455 19.25 10.5136C19.2509 10.2809 19.159 10.0586 18.9954 9.89415Z" fill="#222B45"/>
<mask id="mask0" mask-type="alpha" maskUnits="userSpaceOnUse" x="1" y="1" width="19" height="19">
<path fill-rule="evenodd" clip-rule="evenodd" d="M18.9954 9.89415L16.3704 7.25777C16.0291 6.91565 15.4744 6.91302 15.1331 7.25515C14.7901 7.5964 14.7884 8.1494 15.1296 8.4924L16.2575 9.62465H11.375V4.73252L12.5046 5.8674C12.6753 6.0389 12.9001 6.12465 13.125 6.12465C13.3481 6.12465 13.5721 6.03977 13.7428 5.87002C14.0849 5.52877 14.0866 4.9749 13.7454 4.63277L11.1318 2.00777C10.9664 1.8424 10.7756 1.75752 10.5114 1.74965C10.2795 1.74965 10.0573 1.84152 9.89363 2.00515L7.25726 4.63015C6.91513 4.9714 6.91338 5.52527 7.25463 5.8674C7.59501 6.20952 8.14888 6.21127 8.49276 5.87002L9.62501 4.74215V9.62465H4.73201L5.86688 8.49502C6.20988 8.15377 6.21163 7.5999 5.87038 7.25777C5.52913 6.91565 4.97438 6.91302 4.63313 7.25515L2.00813 9.86877C1.84276 10.0324 1.75088 10.2546 1.75001 10.4865C1.74913 10.7184 1.84188 10.9415 2.00463 11.106L4.62963 13.7424C4.80026 13.9139 5.02513 13.9996 5.25001 13.9996C5.47313 13.9996 5.69713 13.9148 5.86688 13.745C6.20988 13.4038 6.21163 12.8499 5.87038 12.5078L4.74251 11.3746H9.62501V16.2676L8.49538 15.1328C8.15413 14.7898 7.60026 14.788 7.25726 15.1301C6.91513 15.4714 6.91338 16.0253 7.25463 16.3674L9.86826 18.9924C10.0328 19.1569 10.255 19.2496 10.4869 19.2496H10.4886C10.7205 19.2496 10.9428 19.1578 11.1064 18.995L13.7428 16.37C14.0849 16.0288 14.0866 15.4749 13.7454 15.1328C13.4041 14.7898 12.8503 14.788 12.5073 15.1301L11.375 16.2571V11.3746H16.268L15.1331 12.5051C14.7901 12.8464 14.7884 13.3994 15.1296 13.7424C15.3003 13.9139 15.5251 13.9996 15.75 13.9996C15.9731 13.9996 16.1971 13.9148 16.3669 13.745L18.9919 11.1314C19.1573 10.9678 19.2491 10.7455 19.25 10.5136C19.2509 10.2809 19.159 10.0586 18.9954 9.89415Z" fill="white"/>
</mask>
<g mask="url(#mask0)">
</g>
</svg>
