<svg width="21" height="21" viewBox="0 0 21 21" fill="none" xmlns="http://www.w3.org/2000/svg">
<path fill-rule="evenodd" clip-rule="evenodd" d="M20.125 15.75C20.125 16.7165 19.3415 17.5 18.375 17.5H2.625C1.6585 17.5 0.875 16.7165 0.875 15.75V13.0271L1.31186 12.7744C2.11849 12.3078 2.625 11.4485 2.625 10.5C2.625 9.55153 2.11849 8.69225 1.31186 8.22564L0.875 7.97293V5.25C0.875 4.2835 1.6585 3.5 2.625 3.5H18.375C19.3415 3.5 20.125 4.2835 20.125 5.25V7.97293L19.6881 8.22564C18.8815 8.69225 18.375 9.55153 18.375 10.5C18.375 11.4485 18.8815 12.3078 19.6881 12.7744L20.125 13.0271V15.75ZM16.625 10.5C16.625 9.09956 17.2891 7.81409 18.375 6.99953V5.25H13.125C13.125 5.73325 12.7332 6.125 12.25 6.125C11.7668 6.125 11.375 5.73325 11.375 5.25H2.625V6.99953C3.71088 7.81409 4.375 9.09956 4.375 10.5C4.375 11.9004 3.71088 13.1859 2.625 14.0005V15.75H11.375C11.375 15.2668 11.7668 14.875 12.25 14.875C12.7332 14.875 13.125 15.2668 13.125 15.75H18.375V14.0005C17.2891 13.1859 16.625 11.9004 16.625 10.5ZM12.25 14C12.7332 14 13.125 13.6082 13.125 13.125C13.125 12.6418 12.7332 12.25 12.25 12.25C11.7668 12.25 11.375 12.6418 11.375 13.125C11.375 13.6082 11.7668 14 12.25 14ZM13.125 10.5C13.125 10.9832 12.7332 11.375 12.25 11.375C11.7668 11.375 11.375 10.9832 11.375 10.5C11.375 10.0168 11.7668 9.625 12.25 9.625C12.7332 9.625 13.125 10.0168 13.125 10.5ZM12.25 8.75C12.7332 8.75 13.125 8.35825 13.125 7.875C13.125 7.39175 12.7332 7 12.25 7C11.7668 7 11.375 7.39175 11.375 7.875C11.375 8.35825 11.7668 8.75 12.25 8.75Z" fill="black"/>
</svg>
